<?xml version="1.0" standalone="no"?>
<!DOCTYPE svg PUBLIC "-//W3C//DTD SVG 20010904//EN"
 "http://www.w3.org/TR/2001/REC-SVG-20010904/DTD/svg10.dtd">
<svg version="1.0" xmlns="http://www.w3.org/2000/svg"
 width="2851.000000pt" height="2872.000000pt" viewBox="0 0 2851.000000 2872.000000"
 preserveAspectRatio="xMidYMid meet">

<g transform="translate(0.000000,2872.000000) scale(0.100000,-0.100000)"
fill="#eeeeee" stroke="none">
<path d="M6226 25908 c-10 -49 -47 -270 -67 -403 -11 -77 -27 -180 -35 -230
-7 -49 -18 -133 -23 -185 -6 -52 -17 -153 -26 -225 -16 -135 -29 -288 -40
-460 -3 -55 -10 -149 -15 -210 -5 -60 -13 -164 -17 -230 -9 -142 -9 -998 1
-1252 10 -261 23 -486 31 -553 2 -19 7 -80 10 -135 6 -103 13 -217 20 -295 2
-25 7 -94 10 -155 4 -60 8 -121 10 -135 2 -14 6 -68 10 -120 8 -122 31 -356
49 -490 8 -58 20 -154 26 -215 6 -60 16 -139 21 -175 5 -36 11 -81 14 -100 6
-50 14 -101 36 -220 11 -58 28 -152 38 -210 11 -58 35 -177 55 -265 20 -88 45
-214 56 -280 31 -186 88 -459 120 -575 16 -58 40 -179 55 -269 14 -91 28 -167
30 -170 1 -3 6 -22 9 -41 7 -46 38 -173 70 -285 23 -80 82 -313 107 -420 5
-22 43 -139 85 -260 103 -300 118 -343 142 -395 11 -25 40 -99 63 -165 43
-119 97 -247 244 -570 84 -186 185 -397 194 -405 3 -3 15 -23 26 -45 11 -22
32 -61 48 -88 29 -47 29 -47 22 -170 -4 -67 -8 -133 -11 -147 -4 -26 -12 -222
-19 -430 -2 -69 1 -179 5 -245 5 -66 11 -304 14 -528 3 -225 8 -412 10 -415 2
-4 7 -79 10 -167 4 -87 9 -162 11 -165 1 -3 6 -54 9 -115 4 -60 9 -129 12
-152 9 -95 13 -133 24 -243 6 -63 15 -146 20 -185 5 -38 12 -110 15 -160 3
-49 8 -101 10 -115 10 -65 26 -190 31 -240 3 -30 10 -82 16 -115 6 -33 12 -69
13 -80 2 -11 12 -65 23 -120 11 -55 23 -118 27 -140 3 -22 13 -80 20 -130 8
-49 17 -101 19 -115 2 -14 7 -47 10 -75 3 -27 13 -93 22 -145 8 -52 17 -113
20 -135 3 -22 8 -47 11 -55 3 -8 6 -31 8 -52 3 -37 32 -177 67 -328 37 -164
74 -351 83 -425 2 -16 8 -45 14 -63 5 -18 10 -35 10 -37 0 -16 46 -235 66
-315 8 -30 16 -71 19 -90 5 -41 25 -126 37 -155 4 -11 13 -49 19 -85 7 -36 15
-69 20 -75 4 -5 13 -35 20 -65 6 -30 25 -93 40 -140 15 -47 33 -110 39 -141 7
-30 23 -87 36 -125 14 -38 25 -77 25 -87 0 -9 4 -25 9 -35 5 -9 19 -48 30 -87
12 -38 33 -105 46 -148 14 -42 25 -86 25 -96 0 -10 3 -20 6 -24 6 -6 122 -340
149 -427 7 -25 25 -76 40 -115 14 -38 37 -99 50 -135 45 -124 66 -173 126
-294 95 -192 200 -393 254 -486 20 -36 55 -99 78 -140 22 -41 48 -87 59 -102
10 -14 18 -31 18 -36 0 -6 11 -23 24 -39 13 -15 33 -47 45 -71 12 -24 44 -76
71 -117 28 -40 50 -76 50 -79 0 -2 34 -56 75 -118 41 -62 84 -126 94 -143 25
-41 194 -299 232 -355 16 -25 69 -103 116 -175 46 -71 99 -146 117 -165 17
-19 40 -52 51 -73 10 -22 36 -56 57 -78 21 -21 38 -42 38 -45 0 -9 241 -347
257 -360 7 -6 13 -15 13 -20 0 -11 34 -46 164 -173 53 -52 96 -98 96 -102 0
-19 758 -777 889 -890 95 -82 114 -100 241 -223 154 -148 207 -186 437 -302
115 -58 226 -116 248 -129 65 -40 210 -107 294 -137 109 -39 276 -87 304 -88
16 0 37 -5 48 -10 157 -85 1391 -85 1548 0 11 5 32 10 48 10 28 1 195 49 304
88 84 30 229 97 294 137 22 13 133 71 248 129 230 116 283 154 437 302 127
123 146 141 241 223 131 113 889 871 889 890 0 4 43 50 96 102 130 127 164
162 164 173 0 5 6 14 13 20 16 13 257 351 257 360 0 3 17 24 38 45 21 22 47
56 57 78 11 21 34 54 51 73 18 19 71 94 117 165 47 72 100 150 116 175 38 56
207 314 232 355 10 17 53 81 94 143 41 62 75 116 75 118 0 3 22 39 50 79 27
41 59 93 71 117 12 24 32 56 45 71 13 16 24 33 24 39 0 5 8 22 18 36 11 15 37
61 59 102 23 41 58 104 78 140 54 93 159 294 254 486 60 121 81 170 126 294
13 36 36 97 50 135 15 39 33 90 40 115 27 87 143 421 149 427 3 4 6 14 6 24 0
10 11 54 25 96 13 43 34 110 46 148 11 39 25 78 30 87 5 10 9 26 9 35 0 10 11
49 25 87 13 38 29 95 36 125 6 31 24 94 39 141 15 47 34 110 40 140 7 30 16
60 20 65 5 6 13 39 20 75 6 36 15 74 19 85 12 29 32 114 37 155 3 19 11 60 19
90 20 80 66 299 66 315 0 2 5 19 10 37 6 18 12 47 14 63 9 74 46 261 83 425
35 151 64 291 67 328 2 21 5 44 8 52 3 8 8 33 11 55 3 22 12 83 20 135 9 52
19 118 22 145 3 28 8 61 10 75 2 14 11 66 19 115 7 50 17 108 20 130 4 22 16
85 27 140 11 55 21 109 23 120 1 11 7 47 13 80 6 33 13 85 16 115 5 50 21 175
31 240 2 14 7 66 10 115 3 50 10 122 15 160 5 39 14 122 20 185 11 110 15 148
24 243 3 23 8 92 12 152 3 61 8 112 9 115 2 3 7 78 11 165 3 88 8 163 10 167
2 3 7 190 10 415 3 224 9 462 14 528 4 66 7 176 5 245 -7 208 -15 404 -19 430
-3 14 -7 80 -11 147 -7 123 -7 123 22 170 16 27 37 66 48 88 11 22 23 42 26
45 9 8 110 219 194 405 147 323 201 451 244 570 23 66 52 140 63 165 24 52 39
95 142 395 42 121 80 238 85 260 25 107 84 340 107 420 32 112 63 239 70 285
3 19 8 38 9 41 2 3 16 79 30 170 15 90 39 211 55 269 32 116 89 389 120 575
11 66 36 192 56 280 20 88 44 207 55 265 10 58 27 152 38 210 22 119 30 170
36 220 3 19 9 64 14 100 5 36 15 115 21 175 6 61 18 157 26 215 18 134 41 368
49 490 4 52 8 106 10 120 2 14 6 75 10 135 3 61 8 130 10 155 7 78 14 192 20
295 3 55 8 116 10 135 8 67 21 292 31 553 10 254 10 1110 1 1252 -4 66 -12
170 -17 230 -5 61 -12 155 -15 210 -11 172 -24 325 -40 460 -9 72 -20 173 -26
225 -5 52 -16 136 -23 185 -73 472 -101 644 -109 651 -5 6 -43 -109 -72 -216
-10 -36 -32 -112 -50 -170 -18 -58 -42 -141 -54 -185 -12 -44 -33 -116 -47
-160 -13 -44 -24 -86 -24 -93 0 -14 -116 -365 -131 -397 -6 -12 -11 -27 -13
-35 -7 -41 -160 -479 -190 -545 -8 -16 -24 -59 -36 -95 -12 -36 -27 -78 -35
-95 -12 -29 -38 -99 -91 -247 -14 -40 -39 -102 -56 -138 -16 -36 -40 -92 -53
-125 -12 -33 -51 -118 -87 -190 -58 -118 -105 -208 -268 -520 -29 -55 -79
-152 -112 -215 -33 -63 -66 -122 -73 -130 -7 -8 -25 -40 -40 -70 -15 -30 -37
-68 -49 -85 -13 -16 -47 -75 -76 -130 -29 -55 -76 -138 -103 -185 -84 -141
-217 -362 -251 -415 -131 -203 -215 -331 -262 -395 -30 -41 -72 -100 -92 -130
-37 -56 -235 -337 -250 -355 -19 -24 -127 -164 -164 -215 -23 -30 -57 -73 -77
-96 -38 -43 -41 -46 -141 -169 -77 -94 -108 -134 -152 -195 -56 -78 -52 -77
-105 -19 -86 95 -356 356 -433 419 -41 34 -79 67 -85 74 -14 15 -137 108 -280
209 -66 47 -125 90 -132 96 -7 6 -15 11 -18 11 -3 0 -31 19 -62 43 -101 77
-118 87 -130 83 -7 -3 -12 -1 -10 5 6 26 -547 318 -928 489 -64 29 -720 246
-830 275 -121 31 -332 74 -399 81 -28 3 -54 7 -58 10 -10 6 -36 11 -103 19
-27 3 -75 9 -105 14 -89 15 -188 26 -327 36 -51 3 -100 8 -110 9 -132 26
-1090 27 -1303 2 -25 -3 -81 -8 -125 -11 -147 -11 -240 -21 -325 -36 -30 -5
-77 -11 -105 -14 -67 -8 -93 -13 -103 -19 -4 -3 -30 -7 -58 -10 -67 -7 -278
-50 -399 -81 -110 -29 -766 -246 -830 -275 -381 -171 -934 -463 -928 -489 2
-6 -3 -8 -10 -5 -12 4 -29 -6 -130 -83 -31 -24 -59 -43 -62 -43 -3 0 -11 -5
-18 -11 -7 -6 -66 -49 -132 -96 -143 -101 -266 -194 -280 -209 -5 -7 -44 -40
-85 -74 -77 -63 -347 -324 -433 -419 -53 -58 -49 -59 -105 19 -44 61 -75 101
-152 195 -100 123 -103 126 -141 169 -20 23 -54 66 -77 96 -37 51 -145 191
-164 215 -15 18 -213 299 -250 355 -20 30 -62 89 -92 130 -47 64 -131 192
-262 395 -34 53 -167 274 -251 415 -27 47 -74 130 -103 185 -29 55 -63 114
-76 130 -12 17 -34 55 -49 85 -15 30 -33 62 -40 70 -7 8 -40 67 -73 130 -33
63 -83 160 -112 215 -163 312 -210 402 -268 520 -36 72 -75 157 -87 190 -13
33 -37 89 -53 125 -17 36 -42 98 -56 138 -53 148 -79 218 -91 247 -8 17 -23
59 -35 95 -12 36 -28 79 -36 95 -30 66 -183 504 -190 545 -2 8 -7 23 -13 35
-15 32 -131 383 -131 397 0 7 -11 49 -24 93 -14 44 -35 116 -47 160 -12 44
-36 127 -54 185 -18 58 -40 134 -50 170 -24 90 -66 220 -71 220 -2 0 -6 -10
-8 -22z m219 -1738 c44 -125 162 -447 175 -475 5 -11 25 -61 44 -112 19 -50
53 -130 75 -178 22 -48 42 -94 43 -103 2 -10 5 -19 9 -22 3 -3 21 -48 41 -100
36 -95 70 -169 178 -395 31 -66 61 -131 65 -145 10 -32 234 -471 273 -535 17
-27 47 -84 67 -125 20 -41 45 -84 55 -95 10 -11 44 -69 76 -130 31 -60 65
-121 74 -135 10 -14 37 -61 60 -105 45 -84 136 -234 224 -370 55 -83 93 -146
136 -220 14 -24 42 -67 63 -97 20 -29 55 -80 77 -113 22 -33 70 -100 105 -150
36 -49 81 -112 100 -140 32 -46 76 -106 154 -210 16 -22 56 -70 88 -106 32
-36 74 -86 93 -110 19 -24 53 -64 75 -89 22 -24 45 -51 50 -59 6 -7 74 -80
151 -160 78 -80 163 -171 190 -201 117 -131 408 -429 494 -505 25 -22 86 -72
135 -110 50 -38 123 -101 163 -140 40 -38 81 -74 92 -79 11 -5 20 -12 20 -16
0 -11 180 -163 186 -157 5 4 -31 75 -94 187 -14 25 -48 86 -75 135 -71 131
-109 192 -223 362 -138 205 -144 213 -180 253 -58 64 -104 142 -94 159 9 17
386 390 435 431 162 133 261 209 375 284 41 27 77 52 80 55 8 11 258 172 325
211 301 173 712 355 970 430 55 16 138 42 185 58 404 138 533 174 670 187 19
1 71 10 115 18 101 19 220 36 310 42 39 3 102 10 140 15 208 28 386 35 840 35
454 0 632 -7 840 -35 39 -5 102 -12 140 -15 90 -6 209 -23 310 -42 44 -8 96
-17 115 -18 137 -13 266 -49 670 -187 47 -16 130 -42 185 -58 258 -75 669
-257 970 -430 67 -39 317 -200 325 -211 3 -3 39 -28 80 -55 114 -75 213 -151
375 -284 49 -41 426 -414 435 -431 10 -17 -36 -95 -94 -159 -36 -40 -42 -48
-180 -253 -114 -170 -152 -231 -223 -362 -27 -49 -61 -110 -75 -135 -63 -112
-99 -183 -94 -187 6 -6 186 146 186 157 0 4 9 11 20 16 11 5 52 41 92 79 40
39 114 102 163 140 50 38 110 88 135 110 86 76 377 374 494 505 27 30 112 121
190 201 77 80 146 153 151 160 6 8 28 35 50 59 22 25 56 65 75 89 19 24 61 74
93 110 32 36 72 84 88 106 78 104 122 164 154 210 19 28 64 91 100 140 35 50
83 117 105 150 22 33 57 84 77 113 21 30 49 73 63 97 43 74 81 137 136 220 88
136 179 286 224 370 23 44 50 91 60 105 9 14 43 75 74 135 32 61 66 119 76
130 10 11 35 54 55 95 20 41 50 98 67 125 39 64 263 503 273 535 4 14 34 79
65 145 108 226 142 300 178 395 20 52 38 97 41 100 4 3 7 12 9 22 1 9 21 55
43 103 22 48 56 128 75 178 19 51 39 101 44 112 13 28 131 350 175 475 77 220
72 208 78 175 4 -17 9 -93 12 -170 3 -77 8 -196 10 -265 9 -201 10 -895 2
-1020 -11 -169 -18 -271 -23 -309 -2 -19 -8 -91 -14 -160 -6 -69 -12 -133 -15
-141 -2 -8 -7 -58 -10 -110 -4 -52 -8 -108 -11 -125 -2 -16 -4 -64 -5 -105 0
-41 -7 -131 -15 -200 -8 -69 -21 -199 -29 -290 -14 -158 -39 -373 -70 -585 -8
-55 -24 -174 -36 -265 -11 -91 -25 -185 -30 -210 -5 -25 -14 -72 -20 -105 -5
-33 -16 -89 -24 -125 -15 -65 -62 -327 -69 -378 -2 -15 -7 -49 -10 -77 -14
-102 -49 -272 -101 -485 -13 -52 -29 -126 -35 -165 -7 -38 -18 -92 -25 -120
-7 -27 -23 -99 -35 -160 -12 -60 -28 -132 -36 -160 -12 -48 -33 -146 -56 -265
-6 -30 -17 -82 -25 -115 -29 -116 -53 -230 -53 -258 0 -16 -13 -62 -29 -102
-16 -40 -39 -106 -51 -146 -20 -70 -100 -275 -141 -364 -10 -22 -41 -107 -68
-190 -27 -82 -75 -211 -106 -285 -31 -74 -72 -177 -91 -228 -18 -51 -45 -115
-59 -142 -14 -27 -25 -55 -25 -61 0 -7 -45 -110 -100 -230 -55 -120 -100 -221
-100 -225 0 -4 -13 -37 -29 -73 -16 -36 -62 -142 -101 -234 -83 -196 -113
-262 -185 -412 -29 -60 -63 -132 -75 -160 -47 -108 -74 -165 -141 -297 -38
-75 -79 -156 -92 -180 -41 -77 -41 -86 -1 -48 96 90 294 293 357 365 39 44 93
105 121 135 l51 56 -1 -286 c-1 -157 3 -364 8 -460 9 -181 12 -545 4 -558 -2
-4 -7 -59 -10 -122 -4 -63 -9 -133 -12 -155 -2 -22 -7 -62 -9 -90 -11 -153
-27 -320 -36 -395 -6 -47 -14 -128 -19 -180 -36 -393 -91 -789 -129 -940 -5
-19 -12 -55 -16 -80 -17 -109 -31 -166 -67 -275 -17 -49 -41 -131 -54 -182
-36 -135 -176 -538 -231 -661 -12 -29 -23 -54 -23 -56 0 -2 -20 -46 -44 -98
-24 -51 -60 -136 -80 -188 -21 -52 -44 -110 -52 -127 -8 -18 -20 -48 -28 -65
-40 -95 -89 -195 -101 -208 -7 -8 -37 -69 -65 -135 -29 -66 -65 -147 -80 -180
-15 -33 -31 -71 -35 -85 -4 -14 -37 -92 -72 -175 -58 -134 -83 -187 -129 -276
-33 -64 -55 -109 -87 -179 -36 -77 -103 -218 -178 -375 -23 -49 -78 -153 -122
-230 -69 -120 -147 -275 -147 -290 0 -2 -21 -48 -46 -102 -25 -54 -50 -107
-55 -118 -5 -11 -13 -27 -18 -35 -6 -8 -21 -42 -36 -75 -14 -33 -30 -67 -35
-75 -13 -19 -36 -69 -46 -95 -5 -16 -8 -13 -16 20 -11 47 -6 112 16 210 41
183 60 289 75 433 6 51 15 109 20 130 14 53 49 458 56 647 3 88 8 185 11 215
l6 55 -26 -38 c-14 -21 -26 -42 -26 -46 0 -9 -27 -74 -66 -159 -13 -29 -24
-57 -24 -62 0 -6 -4 -18 -9 -28 -14 -27 -38 -84 -46 -112 -4 -14 -11 -30 -16
-36 -5 -6 -18 -35 -28 -65 -32 -93 -70 -179 -143 -329 -38 -80 -77 -163 -86
-185 -9 -22 -30 -67 -48 -100 -18 -33 -40 -87 -49 -120 -10 -33 -29 -80 -44
-105 -27 -44 -129 -250 -309 -620 -87 -179 -110 -230 -187 -410 -20 -47 -49
-110 -65 -140 -15 -30 -45 -97 -65 -149 -20 -52 -54 -129 -76 -172 -42 -84
-112 -264 -124 -320 -4 -18 -13 -43 -20 -54 -7 -11 -30 -66 -50 -123 -55 -151
-56 -142 -10 143 8 50 19 142 25 205 8 100 32 290 85 680 14 102 29 256 41
430 10 149 14 183 28 290 8 58 17 175 20 260 4 85 9 169 11 185 11 70 14 235
5 235 -6 0 -10 -7 -10 -15 0 -8 -7 -15 -16 -15 -8 0 -22 -16 -30 -35 -8 -19
-29 -59 -48 -88 -42 -65 -136 -249 -136 -265 0 -7 -4 -12 -10 -12 -5 0 -10 -5
-10 -12 0 -6 -8 -30 -19 -52 -10 -23 -31 -68 -46 -101 -15 -33 -45 -96 -66
-140 -22 -43 -39 -84 -39 -90 0 -5 -7 -23 -16 -40 -9 -16 -24 -52 -34 -80 -10
-27 -44 -106 -75 -175 -87 -190 -164 -366 -200 -455 -18 -44 -42 -100 -53
-125 -12 -25 -40 -94 -63 -155 -22 -60 -54 -141 -70 -179 -16 -38 -29 -74 -29
-81 0 -7 -13 -43 -29 -81 -17 -38 -60 -148 -97 -244 -36 -96 -72 -186 -79
-200 -7 -14 -18 -47 -24 -75 -7 -27 -21 -63 -30 -80 -10 -16 -36 -76 -57 -133
-41 -108 -60 -130 -51 -59 31 245 44 1393 16 1502 -4 17 -10 91 -13 165 -4 74
-8 149 -11 165 -3 17 -8 75 -11 130 -3 55 -7 111 -7 125 -1 14 -6 26 -12 28
-11 3 -45 -54 -45 -75 0 -7 -4 -13 -10 -13 -5 0 -10 -11 -10 -24 0 -13 -7 -26
-15 -30 -8 -3 -15 -11 -15 -18 0 -7 -11 -35 -25 -62 -14 -27 -25 -55 -25 -63
0 -7 -8 -32 -18 -56 -20 -44 -52 -137 -56 -159 -1 -7 -7 -22 -13 -33 -5 -11
-27 -72 -48 -135 -20 -63 -55 -156 -76 -206 -22 -50 -39 -97 -39 -103 0 -15
-77 -247 -95 -286 -7 -16 -26 -66 -40 -110 -15 -44 -35 -96 -45 -115 -9 -19
-23 -60 -30 -90 -7 -30 -20 -80 -30 -110 -18 -56 -43 -143 -61 -215 -6 -22
-19 -62 -29 -90 -9 -27 -30 -97 -45 -155 -15 -58 -33 -126 -41 -152 -8 -26
-14 -58 -14 -72 0 -14 -4 -27 -9 -30 -5 -3 -14 -30 -21 -58 -40 -174 -99 -397
-124 -467 -9 -24 -16 -54 -16 -67 0 -38 -15 -35 -17 4 -2 38 -21 216 -27 242
-1 8 -8 33 -13 55 -6 22 -18 101 -28 175 -9 74 -21 164 -26 200 -6 36 -15 96
-20 134 -5 38 -13 76 -18 85 -5 9 -12 50 -16 91 -4 41 -16 116 -27 165 -11 50
-23 113 -28 140 -4 28 -15 86 -23 130 -16 84 -35 200 -41 250 -2 17 -11 64
-20 105 -9 41 -20 95 -25 120 -6 25 -18 77 -27 115 -9 39 -18 77 -18 85 -1 9
-5 20 -8 26 -4 6 -9 21 -12 35 -2 13 -12 53 -21 89 -9 36 -18 76 -21 89 -10
46 -46 176 -70 251 -13 41 -24 85 -24 97 0 13 -4 23 -10 23 -5 0 -10 -1 -10
-3 0 -2 -12 -41 -26 -88 -27 -90 -70 -244 -78 -281 -3 -13 -12 -52 -21 -88 -9
-36 -19 -76 -21 -89 -3 -14 -8 -29 -12 -35 -3 -6 -7 -17 -8 -26 0 -8 -9 -46
-18 -85 -9 -38 -21 -90 -27 -115 -5 -25 -16 -79 -25 -120 -9 -41 -18 -88 -20
-105 -6 -50 -25 -166 -41 -250 -8 -44 -19 -102 -23 -130 -5 -27 -17 -90 -28
-140 -11 -49 -23 -124 -27 -165 -4 -41 -11 -82 -16 -91 -5 -9 -13 -47 -18 -85
-5 -38 -14 -98 -20 -134 -5 -36 -17 -126 -26 -200 -10 -74 -22 -153 -28 -175
-5 -22 -12 -47 -13 -55 -6 -26 -25 -204 -27 -242 -2 -39 -17 -42 -17 -4 0 13
-7 43 -16 67 -25 70 -84 293 -124 467 -7 28 -16 55 -21 58 -5 3 -9 16 -9 30 0
14 -6 46 -14 72 -8 26 -26 94 -41 152 -15 58 -36 128 -45 155 -10 28 -23 68
-29 90 -18 72 -43 159 -61 215 -10 30 -23 80 -30 110 -7 30 -21 71 -30 90 -10
19 -30 71 -45 115 -14 44 -33 94 -40 110 -18 39 -95 271 -95 286 0 6 -17 53
-39 103 -21 50 -56 143 -76 206 -21 63 -43 124 -48 135 -6 11 -12 26 -13 33
-4 22 -36 115 -56 159 -10 24 -18 49 -18 56 0 8 -11 36 -25 63 -14 27 -25 55
-25 62 0 7 -7 15 -15 18 -8 4 -15 17 -15 30 0 13 -4 24 -10 24 -5 0 -10 6 -10
13 0 21 -35 79 -45 76 -6 -2 -11 -15 -12 -29 0 -14 -4 -70 -7 -125 -3 -55 -8
-113 -11 -130 -3 -16 -7 -91 -11 -165 -3 -74 -9 -148 -13 -165 -28 -109 -15
-1257 16 -1502 9 -71 -10 -49 -51 60 -21 56 -47 116 -57 132 -9 17 -23 53 -30
80 -6 28 -17 61 -24 75 -7 14 -43 104 -79 200 -37 96 -80 206 -97 244 -16 38
-29 74 -29 81 0 7 -13 43 -29 81 -16 38 -48 119 -70 179 -23 61 -51 130 -63
155 -11 25 -35 81 -53 125 -36 89 -113 265 -200 455 -31 69 -65 148 -75 175
-10 28 -25 64 -34 80 -9 17 -16 35 -16 40 0 6 -17 47 -39 90 -21 44 -51 107
-66 140 -15 33 -36 78 -46 101 -11 22 -19 46 -19 52 0 7 -4 12 -10 12 -5 0
-10 5 -10 12 0 16 -94 200 -136 265 -19 29 -40 69 -48 88 -8 19 -22 35 -30 35
-9 0 -16 7 -16 15 0 8 -4 15 -10 15 -9 0 -6 -165 5 -235 2 -16 7 -100 11 -185
3 -85 12 -202 20 -260 14 -107 18 -141 28 -290 12 -174 27 -328 41 -430 53
-390 77 -580 85 -680 6 -63 17 -155 25 -205 32 -203 37 -236 32 -241 -2 -3
-21 41 -42 98 -20 57 -43 112 -50 123 -7 11 -16 36 -20 54 -12 56 -82 236
-124 320 -22 43 -56 120 -76 172 -20 52 -49 119 -65 149 -15 30 -42 87 -58
125 -17 39 -47 108 -68 155 -61 143 -392 819 -435 890 -15 25 -34 72 -44 105
-9 33 -31 87 -49 120 -18 33 -39 78 -48 100 -9 22 -48 105 -86 185 -73 150
-111 236 -143 329 -10 30 -23 59 -28 65 -5 6 -12 22 -16 36 -8 28 -32 85 -46
112 -5 10 -9 22 -9 28 0 5 -11 33 -24 62 -39 85 -66 150 -66 159 0 4 -12 25
-26 46 l-26 38 6 -55 c3 -30 8 -127 11 -215 7 -189 42 -594 56 -647 5 -21 14
-79 20 -130 15 -144 34 -250 75 -433 22 -98 27 -163 16 -210 -8 -33 -11 -36
-16 -20 -10 26 -33 76 -46 95 -5 8 -21 42 -35 75 -15 33 -30 67 -36 75 -5 8
-13 24 -18 35 -5 11 -30 64 -55 118 -25 54 -46 100 -46 102 0 15 -78 170 -147
290 -44 77 -99 181 -122 230 -75 157 -142 298 -178 375 -32 70 -54 115 -87
179 -46 89 -71 142 -129 276 -35 83 -68 161 -72 175 -4 14 -20 52 -35 85 -15
33 -51 114 -80 180 -28 66 -58 127 -65 135 -12 13 -61 113 -101 208 -8 17 -20
47 -28 65 -8 17 -31 75 -52 127 -20 52 -56 137 -80 188 -24 52 -44 96 -44 98
0 2 -11 27 -23 56 -55 123 -195 526 -231 661 -13 51 -37 133 -54 182 -36 109
-50 166 -67 275 -4 25 -11 61 -16 80 -38 151 -93 547 -129 940 -5 52 -13 133
-19 180 -9 75 -25 242 -36 395 -2 28 -7 68 -9 90 -3 22 -8 92 -12 155 -3 63
-8 118 -10 122 -8 13 -5 377 4 558 5 96 9 303 8 460 l-1 286 51 -56 c28 -30
82 -91 121 -135 63 -72 261 -275 357 -365 40 -38 40 -29 -1 48 -13 24 -54 105
-92 180 -67 132 -94 189 -141 297 -12 28 -46 100 -75 160 -72 150 -102 216
-185 412 -39 92 -85 198 -101 234 -16 36 -29 69 -29 73 0 4 -45 105 -100 225
-55 120 -100 223 -100 230 0 6 -11 34 -25 61 -14 27 -41 91 -59 142 -19 51
-60 154 -91 228 -31 74 -79 203 -106 285 -27 83 -58 168 -68 190 -41 89 -121
294 -141 364 -12 40 -35 106 -51 146 -16 40 -29 86 -29 102 0 28 -24 142 -53
258 -8 33 -19 85 -25 115 -23 119 -44 217 -56 265 -8 28 -24 100 -36 160 -12
61 -28 133 -35 160 -7 28 -18 82 -25 120 -6 39 -22 113 -35 165 -52 213 -87
383 -101 485 -3 28 -8 62 -10 77 -7 51 -54 313 -69 378 -8 36 -19 92 -24 125
-6 33 -15 80 -20 105 -5 25 -19 119 -30 210 -12 91 -28 210 -36 265 -31 212
-56 427 -70 585 -8 91 -21 221 -29 290 -8 69 -15 159 -15 200 -1 41 -3 89 -5
105 -3 17 -7 73 -11 125 -3 52 -8 102 -10 110 -3 8 -9 72 -15 141 -6 69 -12
141 -14 160 -5 38 -12 140 -23 309 -8 125 -7 819 2 1020 2 69 7 188 10 265 3
77 8 153 12 170 6 33 1 45 78 -175z m2196 -14408 c32 -73 59 -136 59 -140 0
-7 65 -168 117 -287 46 -106 218 -446 291 -575 18 -30 32 -63 32 -73 0 -10 7
-20 15 -23 8 -3 17 -16 21 -27 4 -12 20 -41 36 -65 41 -59 139 -237 167 -301
20 -47 187 -381 210 -421 24 -41 221 -451 221 -460 0 -14 57 -119 130 -240
111 -186 157 -266 185 -325 16 -33 34 -64 41 -70 6 -5 17 -26 24 -45 7 -19 18
-41 23 -47 5 -7 22 -39 38 -70 40 -80 69 -128 169 -279 48 -72 89 -135 91
-140 11 -26 72 -114 79 -114 4 0 10 11 12 25 6 30 -18 229 -33 270 -6 17 -14
53 -19 80 -25 158 -52 292 -60 307 -6 10 -10 35 -10 56 0 21 -4 42 -9 47 -5 6
-11 28 -14 50 -3 22 -12 67 -22 100 -19 69 -34 142 -40 200 -2 22 -7 58 -10
80 -3 22 -7 51 -9 65 -2 14 -9 52 -15 85 -15 75 -23 155 -17 155 3 0 12 -24
21 -52 30 -103 86 -244 139 -353 30 -60 82 -175 116 -255 89 -210 99 -230 110
-230 5 0 33 -48 61 -107 51 -109 57 -122 79 -180 7 -18 16 -33 20 -33 4 0 13
-19 20 -42 8 -24 19 -46 26 -50 6 -4 15 -24 19 -44 3 -20 10 -44 15 -53 16
-30 40 -89 40 -98 0 -4 9 -19 20 -33 11 -14 20 -31 20 -38 0 -15 31 -87 65
-154 14 -27 25 -54 25 -62 0 -8 24 -63 54 -123 29 -59 66 -135 82 -168 26 -56
64 -128 139 -260 17 -29 56 -100 88 -157 32 -56 63 -110 68 -118 5 -8 20 -37
33 -65 95 -202 127 -265 135 -265 4 0 11 37 14 83 5 80 0 169 -23 372 -6 55
-13 136 -15 180 -2 44 -8 118 -14 165 -11 101 -17 161 -31 335 -13 154 -17
190 -31 315 -6 52 -12 115 -14 140 -6 93 -35 309 -55 420 -11 63 -25 146 -30
185 -6 38 -13 78 -16 88 -4 12 -2 17 4 13 5 -3 13 -18 16 -32 4 -14 16 -45 26
-68 11 -22 26 -66 34 -96 8 -30 26 -84 40 -119 14 -36 26 -70 26 -75 0 -6 14
-31 30 -56 16 -25 30 -58 30 -73 0 -16 16 -67 36 -115 20 -48 53 -136 74 -197
59 -171 103 -289 160 -425 28 -69 60 -147 70 -175 21 -56 82 -202 98 -231 6
-10 18 -41 27 -69 10 -27 37 -90 60 -140 24 -49 56 -119 70 -155 15 -36 43
-96 62 -135 19 -38 68 -149 109 -245 42 -96 79 -179 85 -184 5 -6 9 -17 9 -25
0 -9 13 -41 28 -71 16 -30 45 -98 66 -150 37 -96 69 -150 81 -138 4 4 3 35 -2
70 -10 68 -2 319 16 515 24 258 15 1223 -13 1389 -4 22 -3 50 2 63 7 20 11 14
26 -45 10 -38 26 -100 36 -139 11 -38 26 -97 34 -130 8 -33 27 -105 41 -160
15 -55 31 -118 36 -140 21 -102 53 -215 75 -266 13 -31 24 -68 24 -82 0 -33
27 -123 49 -167 10 -19 22 -51 26 -70 4 -19 18 -56 31 -82 20 -39 93 -283 134
-443 18 -72 110 -347 120 -360 10 -12 41 -93 44 -115 1 -8 7 -24 13 -35 6 -11
24 -68 41 -127 17 -58 40 -125 52 -148 19 -38 44 -59 56 -48 15 16 68 254 79
360 2 20 11 79 20 130 9 51 18 104 20 118 22 144 40 242 61 330 14 58 29 123
34 145 5 22 14 83 20 135 7 52 18 115 25 140 8 25 16 68 19 95 6 61 25 165 33
185 3 8 7 26 8 40 3 56 18 152 42 275 13 72 26 149 27 171 2 23 7 47 11 54 4
6 8 24 10 38 4 39 36 206 40 210 2 2 8 -30 15 -70 6 -40 16 -88 22 -106 5 -18
7 -36 4 -39 -3 -3 0 -15 6 -26 6 -11 12 -39 14 -61 1 -23 14 -99 27 -171 24
-123 39 -219 42 -275 1 -14 5 -32 8 -40 8 -20 27 -124 33 -185 3 -27 11 -70
19 -95 7 -25 18 -88 25 -140 6 -52 15 -113 20 -135 5 -22 20 -87 34 -145 21
-88 39 -186 61 -330 2 -14 11 -67 20 -118 9 -51 18 -110 20 -130 11 -106 64
-344 79 -360 12 -11 37 10 56 48 12 23 35 90 52 148 17 59 35 116 41 127 6 11
12 27 13 35 3 22 34 103 44 115 10 13 102 288 120 360 41 160 114 404 134 443
13 26 27 63 31 82 4 19 16 51 26 70 22 44 49 134 49 167 0 14 11 51 24 82 22
51 54 164 75 266 5 22 21 85 36 140 14 55 33 127 41 160 8 33 23 92 34 130 10
39 26 101 36 139 15 59 19 65 26 45 5 -13 6 -41 2 -63 -28 -166 -37 -1131 -13
-1389 18 -196 26 -447 16 -515 -5 -35 -6 -66 -2 -70 12 -12 44 42 81 138 21
52 50 120 66 150 15 30 28 62 28 70 0 9 4 20 9 25 6 6 43 89 85 185 41 96 90
207 109 245 19 39 47 99 62 135 14 36 46 106 70 155 23 50 50 113 60 140 9 28
21 59 27 69 16 29 77 175 98 231 10 28 42 106 70 175 57 136 101 254 160 425
21 61 54 149 74 197 20 48 36 99 36 115 0 15 14 48 30 73 16 25 30 50 30 56 0
5 12 39 26 75 14 35 32 89 40 119 8 30 23 74 34 96 10 23 22 54 26 68 3 14 11
29 16 32 6 4 8 -1 4 -13 -3 -10 -10 -50 -16 -88 -5 -39 -19 -122 -30 -185 -20
-111 -49 -327 -55 -420 -2 -25 -8 -88 -14 -140 -14 -125 -18 -161 -31 -315
-14 -174 -20 -234 -31 -335 -6 -47 -12 -121 -14 -165 -2 -44 -9 -125 -15 -180
-23 -203 -28 -292 -23 -372 3 -46 10 -83 14 -83 8 0 40 63 135 265 13 28 28
57 33 65 5 8 36 62 68 118 32 57 72 128 88 157 75 132 113 204 139 260 16 33
53 109 82 168 30 60 54 115 54 123 0 8 11 35 25 62 34 67 65 139 65 154 0 7 9
24 20 38 11 14 20 29 20 33 0 9 24 68 40 98 5 9 12 33 15 53 4 20 13 40 19 44
7 4 18 26 26 50 7 23 16 42 20 42 4 0 13 15 20 33 22 58 28 71 79 180 28 59
56 107 61 107 11 0 21 20 110 230 34 80 86 195 116 255 53 109 109 250 139
353 9 28 18 52 21 52 6 0 -2 -80 -17 -155 -6 -33 -13 -71 -15 -85 -2 -14 -6
-43 -9 -65 -3 -22 -8 -58 -10 -80 -6 -58 -21 -131 -40 -200 -10 -33 -19 -78
-22 -100 -3 -22 -9 -44 -14 -50 -5 -5 -9 -26 -9 -47 0 -21 -4 -46 -10 -56 -8
-15 -35 -149 -60 -307 -5 -27 -13 -63 -19 -80 -15 -41 -39 -240 -33 -270 2
-14 8 -25 12 -25 7 0 68 88 79 114 2 5 43 68 91 140 100 151 129 199 169 279
16 31 33 63 38 70 5 6 16 28 23 47 7 19 18 40 24 45 7 6 25 37 41 70 28 59 74
139 185 325 73 121 130 226 130 240 0 9 197 419 221 460 23 40 190 374 210
421 28 64 126 242 167 301 16 24 32 53 36 65 4 11 13 24 21 27 8 3 15 13 15
23 0 10 14 43 32 73 73 129 245 469 291 575 52 119 117 280 117 287 0 12 116
267 169 373 28 55 51 92 51 82 0 -16 -26 -121 -135 -542 -12 -49 -39 -159 -60
-244 -95 -396 -195 -703 -329 -1015 -31 -71 -56 -132 -56 -137 0 -4 -16 -42
-35 -83 -19 -42 -35 -82 -35 -89 0 -7 -4 -17 -9 -22 -5 -6 -35 -68 -67 -140
-52 -119 -95 -204 -114 -230 -13 -17 -146 -259 -153 -278 -4 -10 -42 -70 -84
-134 -43 -63 -96 -145 -118 -182 -22 -37 -71 -113 -110 -169 -38 -56 -80 -121
-92 -144 -13 -23 -36 -58 -52 -78 -15 -19 -38 -56 -51 -80 -12 -25 -26 -47
-30 -50 -3 -3 -30 -41 -58 -85 -28 -44 -61 -93 -74 -109 -13 -16 -30 -41 -38
-56 -8 -15 -33 -53 -55 -85 -22 -31 -51 -75 -65 -96 -14 -21 -43 -63 -65 -94
-86 -123 -121 -174 -157 -228 -79 -119 -108 -166 -115 -184 -3 -10 -19 -36
-35 -58 -16 -22 -44 -64 -63 -94 -19 -29 -60 -85 -92 -123 -32 -38 -88 -106
-125 -151 -37 -45 -76 -92 -87 -104 -134 -151 -211 -244 -224 -269 -9 -17 -27
-38 -41 -47 -14 -9 -93 -94 -176 -189 -153 -174 -496 -527 -580 -597 -25 -20
-83 -64 -130 -96 -47 -32 -89 -63 -95 -69 -5 -7 -24 -21 -42 -31 -18 -11 -85
-56 -150 -99 -109 -74 -318 -177 -453 -223 -25 -8 -58 -21 -75 -28 -53 -23
-70 -29 -88 -30 -9 -1 -25 -9 -35 -18 -12 -11 -22 -13 -32 -7 -16 10 -34 7
-128 -21 -35 -10 -67 -17 -72 -14 -4 2 -42 -7 -84 -21 -63 -20 -95 -25 -164
-23 -103 3 -247 -8 -270 -20 -41 -20 -313 -20 -354 0 -23 12 -167 23 -270 20
-69 -2 -101 3 -164 23 -42 14 -80 23 -84 21 -5 -3 -37 4 -72 14 -94 28 -112
31 -128 21 -10 -6 -20 -4 -32 7 -10 9 -26 17 -35 18 -18 1 -35 7 -88 30 -16 7
-50 20 -75 28 -135 46 -344 149 -453 223 -65 43 -132 88 -150 99 -18 10 -36
24 -42 31 -5 6 -48 37 -95 69 -47 32 -105 76 -130 96 -84 70 -427 423 -580
597 -83 95 -162 180 -176 189 -14 9 -32 30 -41 47 -13 25 -90 118 -224 269
-11 12 -50 59 -87 104 -37 45 -93 113 -125 151 -32 38 -73 94 -92 123 -19 30
-47 72 -63 94 -16 22 -32 48 -35 58 -7 18 -36 65 -114 184 -37 54 -72 105
-158 228 -22 31 -51 73 -65 94 -14 21 -43 65 -65 96 -22 32 -47 70 -55 85 -8
15 -25 40 -38 56 -13 16 -46 65 -74 109 -28 44 -55 82 -58 85 -4 3 -18 25 -30
50 -13 24 -36 61 -51 80 -16 20 -39 55 -52 78 -12 23 -53 88 -92 144 -38 56
-88 132 -110 169 -22 37 -75 119 -118 182 -42 64 -80 124 -84 134 -7 19 -140
261 -153 278 -19 26 -62 111 -114 230 -32 72 -62 134 -67 139 -5 6 -9 16 -9
23 0 7 -16 47 -35 89 -19 41 -35 79 -35 83 0 5 -25 66 -56 137 -134 312 -234
619 -329 1015 -21 85 -48 195 -60 244 -109 421 -135 526 -135 542 1 22 80
-134 161 -315z m1696 -2164 c-3 -8 -6 -5 -6 6 -1 11 2 17 5 13 3 -3 4 -12 1
-19z m7440 0 c-3 -8 -6 -5 -6 6 -1 11 2 17 5 13 3 -3 4 -12 1 -19z"/>
<path d="M8553 12644 c-5 -41 -6 -105 -2 -142 4 -37 10 -101 13 -142 16 -194
64 -438 126 -640 15 -52 38 -131 50 -175 46 -167 144 -451 178 -510 6 -11 22
-42 35 -70 92 -190 190 -355 248 -416 9 -9 35 -44 58 -78 97 -142 293 -305
441 -365 36 -15 83 -36 105 -46 42 -20 182 -68 295 -102 200 -58 224 -64 425
-93 55 -8 129 -21 165 -29 108 -25 605 -94 760 -106 80 -5 161 -13 180 -15 19
-3 118 -6 220 -7 146 0 232 5 405 26 121 15 238 32 260 38 22 7 44 11 48 10 4
-1 16 2 26 7 9 6 71 24 136 41 66 17 130 37 142 46 22 14 22 16 8 50 -8 20
-15 46 -15 58 0 12 -4 26 -9 32 -8 8 -34 92 -81 263 -16 55 -26 72 -72 113
-78 71 -75 68 -183 145 -183 130 -431 278 -800 478 -110 59 -263 145 -340 190
-287 168 -419 239 -1070 580 -983 515 -1295 684 -1511 821 -55 35 -106 64
-112 64 -7 0 -12 4 -12 8 0 9 -55 33 -86 37 -20 3 -23 -3 -31 -71z"/>
<path d="M19474 12700 c-16 -8 -30 -18 -32 -22 -2 -5 -9 -8 -15 -8 -6 0 -56
-29 -111 -64 -216 -137 -528 -306 -1511 -821 -651 -341 -783 -412 -1070 -580
-77 -45 -230 -131 -340 -190 -369 -200 -617 -348 -800 -478 -108 -77 -105 -74
-183 -145 -46 -41 -56 -58 -72 -113 -47 -171 -73 -255 -81 -263 -5 -6 -9 -20
-9 -32 0 -12 -7 -38 -15 -58 -14 -34 -14 -36 8 -50 12 -9 76 -29 142 -46 65
-17 127 -35 136 -41 10 -5 22 -8 26 -7 4 1 26 -3 48 -10 22 -6 139 -23 260
-38 173 -21 259 -26 405 -26 102 1 201 4 220 7 19 2 100 10 180 15 155 12 652
81 760 106 36 8 110 21 165 29 201 29 225 35 425 93 113 34 253 82 295 102 22
10 69 31 105 46 148 60 344 223 441 365 23 34 49 69 58 78 58 61 156 226 248
416 13 28 29 59 35 70 34 59 132 343 178 510 12 44 35 123 50 175 62 202 110
446 126 640 3 41 9 105 13 142 4 37 3 101 -2 142 -8 67 -11 74 -31 72 -12 0
-36 -8 -52 -16z"/>
<path d="M13664 9215 c-42 -20 -59 -37 -95 -92 -24 -37 -49 -74 -56 -81 -20
-21 -118 -193 -137 -242 -10 -25 -22 -53 -27 -62 -5 -10 -9 -31 -9 -46 0 -16
-3 -32 -7 -36 -4 -3 -15 -35 -24 -69 -9 -34 -28 -100 -42 -147 -55 -188 -80
-287 -85 -330 -2 -25 -8 -49 -12 -55 -8 -10 -23 -99 -38 -227 -8 -67 -8 -68
24 -99 31 -30 34 -31 92 -24 66 7 91 19 178 83 89 65 175 117 285 173 55 28
102 56 105 61 31 50 330 71 425 30 26 -11 49 -25 53 -30 3 -5 50 -33 105 -61
110 -56 196 -108 285 -173 87 -64 112 -76 178 -83 58 -7 61 -6 92 24 32 31 32
33 25 94 -20 160 -32 228 -40 233 -5 3 -9 18 -9 33 0 15 -6 41 -14 57 -8 16
-26 81 -40 144 -48 207 -88 355 -99 366 -4 4 -7 20 -7 36 0 15 -4 36 -9 46 -5
9 -19 40 -30 68 -30 76 -104 196 -169 276 -107 132 -124 147 -168 154 -38 6
-45 3 -82 -31 -23 -20 -65 -79 -94 -132 -140 -250 -131 -237 -161 -239 -23 -1
-33 7 -53 37 -13 21 -24 41 -24 44 0 9 -53 79 -62 83 -5 2 -8 10 -8 18 0 24
-90 167 -124 196 -38 33 -56 34 -122 3z"/>
</g>
</svg>
